<?xml version="1.0" standalone="no"?>
<!DOCTYPE svg PUBLIC "-//W3C//DTD SVG 20010904//EN"
 "http://www.w3.org/TR/2001/REC-SVG-20010904/DTD/svg10.dtd">
<svg version="1.0" xmlns="http://www.w3.org/2000/svg"
 width="350.000000pt" height="351.000000pt" viewBox="0 0 350.000000 351.000000"
 preserveAspectRatio="xMidYMid meet">
<metadata>
Created by potrace 1.16, written by Peter Selinger 2001-2019
</metadata>
<g transform="translate(0.000000,351.000000) scale(0.100000,-0.100000)"
fill="#000000" stroke="none">
<path d="M1082 3357 c-28 -13 -36 -29 -515 -1007 -425 -869 -432 -886 -421
-918 6 -17 43 -42 124 -86 63 -34 187 -101 275 -148 88 -48 502 -272 920 -499
835 -453 819 -446 870 -387 16 18 64 152 145 400 67 205 268 813 447 1351 227
683 323 985 319 1002 -12 48 102 30 -1313 205 -447 55 -816 100 -820 99 -4 0
-19 -5 -31 -12z m551 -298 c130 -21 196 -36 193 -43 -2 -6 -122 -285 -265
-619 -144 -334 -261 -614 -261 -621 0 -8 167 -77 428 -176 235 -90 429 -164
431 -166 5 -4 -179 -516 -190 -528 -5 -5 -127 47 -291 124 -156 73 -452 211
-658 308 -206 96 -376 175 -377 176 -3 2 316 699 688 1505 39 83 39 83 72 78
17 -4 121 -21 230 -38z"/>
</g>
</svg>
